<svg width="146" height="146" fill="none" xmlns="http://www.w3.org/2000/svg">
  <path d="M73.1866 5.7129a67.10465 67.10465 0 0125.68 5.1081c8.1414 3.3723 15.5394 8.3153 21.7704 14.5465a67.12124 67.12124 0 0114.547 21.7705c3.372 8.1416 5.108 16.8677 5.108 25.68 0 8.8124-1.736 17.5385-5.108 25.6801-3.373 8.1419-8.316 15.5389-14.547 21.7709a67.10101 67.10101 0 01-21.7704 14.546c-8.1416 3.372-16.8676 5.108-25.68 5.108s-17.5385-1.736-25.68-5.108c-8.1416-3.372-15.5392-8.315-21.7705-14.546-6.2313-6.232-11.1742-13.629-14.5466-21.7709A67.10586 67.10586 0 016.08144 72.818a67.10574 67.10574 0 015.10806-25.68 67.10578 67.10578 0 0114.5466-21.7705A67.1055 67.1055 0 0147.5066 10.821a67.10428 67.10428 0 0125.68-5.1081h0z" stroke="#05050F" stroke-width="4.89873"/>
  <path d="M73.5 23.4494c6.4414 0 12.8198 1.2687 18.7709 3.7337A49.05364 49.05364 0 01108.184 37.816a49.04596 49.04596 0 0110.633 15.9131c2.465 5.9511 3.734 12.3295 3.734 18.7709 0 6.4414-1.269 12.8198-3.734 18.7709a49.04915 49.04915 0 01-10.633 15.9131 49.04915 49.04915 0 01-15.9131 10.633c-5.9511 2.465-12.3295 3.734-18.7709 3.734-6.4414 0-12.8198-1.269-18.7709-3.734a49.04596 49.04596 0 01-15.9131-10.633c-4.5548-4.555-8.1679-9.962-10.6329-15.9131A49.05131 49.05131 0 0124.4494 72.5c0-6.4414 1.2687-12.8198 3.7337-18.7709A49.04886 49.04886 0 0138.816 37.816a49.04886 49.04886 0 0115.9131-10.6329A49.05131 49.05131 0 0173.5 23.4494h0z" stroke="#05050F" stroke-width="4.89873"/>
  <path d="M73 24c11.3364 0 22.3221 3.9307 31.085 11.1225 8.763 7.1917 14.762 17.1995 16.973 28.3181 2.212 11.1186.5 22.66-4.844 32.6578-5.344 9.9976-13.989 17.8336-24.4625 22.1716-10.4735 4.338-22.1272 4.911-32.9754 1.62-10.8483-3.291-20.2199-10.241-26.5181-19.667-6.2982-9.4259-9.1332-20.744-8.0221-32.0258 1.1112-11.2819 6.0998-21.8294 14.1159-29.8454" stroke="url(#paint0_linear)" stroke-width="10" stroke-linecap="round"/>
  <path d="M73 5.00001a67.99937 67.99937 0 0132.529 8.28519c9.98 5.4366 18.439 13.288 24.602 22.8365 6.164 9.5485 9.836 20.4895 10.681 31.8231.845 11.3335-1.164 22.6981-5.844 33.0552-4.68 10.357-11.881 19.375-20.945 26.232-9.063 6.856-19.7012 11.331-30.9406 13.016-11.2393 1.685-22.7218.527-33.3979-3.37-10.676-3.897-20.2052-10.407-27.7164-18.936" stroke="url(#paint1_linear)" stroke-width="10" stroke-linecap="round"/>
  <path d="M9.60279 97.5926a68.00043 68.00043 0 01-4.58534-26.1331A68.00058 68.00058 0 0110.7818 45.561a68.00118 68.00118 0 0115.2366-21.7212 67.99902 67.99902 0 0122.3891-14.237" stroke="url(#paint2_linear)" stroke-width="10" stroke-linecap="round"/>
  <path d="M73 5.00001c13.6504 0 26.9849 4.1083 38.269 11.79039" stroke="url(#paint3_linear)" stroke-width="10" stroke-linecap="round"/>
  <circle cx="73.5" cy="72.5" r="29" fill="#05050F" stroke="#05050F"/>
  <path d="M73.9998 82.8332c-5.9832 0-10.8333-4.8501-10.8333-10.8334 0-5.9832 4.8501-10.8333 10.8333-10.8333 5.9833 0 10.8334 4.8501 10.8334 10.8333 0 5.9833-4.8501 10.8334-10.8334 10.8334zm0-2.1667c2.2986 0 4.503-.9131 6.1283-2.5384 1.6253-1.6253 2.5384-3.8297 2.5384-6.1283 0-2.2985-.9131-4.5029-2.5384-6.1282-1.6253-1.6253-3.8297-2.5384-6.1283-2.5384-2.2985 0-4.5029.9131-6.1282 2.5384-1.6253 1.6253-2.5384 3.8297-2.5384 6.1282 0 2.2986.9131 4.503 2.5384 6.1283 1.6253 1.6253 3.8297 2.5384 6.1282 2.5384zm-3.25-13h6.5l2.7084 3.7917-5.9584 5.9583-5.9583-5.9583 2.7083-3.7917zm1.1159 2.1667l-.9967 1.3975 3.1308 3.1308 3.1309-3.1308-.9967-1.3975h-4.2683z" fill="url(#paint4_linear)"/>
  <defs>
    <linearGradient id="paint0_linear" x1="45.9997" y1="19" x2="46.0897" y2="124.308" gradientUnits="userSpaceOnUse">
      <stop stop-color="#E323FF"/>
      <stop offset="1" stop-color="#7517F8"/>
    </linearGradient>
    <linearGradient id="paint1_linear" x1="0" y1=".00001" x2="0" y2="140.677" gradientUnits="userSpaceOnUse">
      <stop stop-color="#4DFFDF"/>
      <stop offset="1" stop-color="#4DA1FF"/>
    </linearGradient>
    <linearGradient id="paint2_linear" x1="36.4997" y1=".00001" x2="36.6213" y2="142.36" gradientUnits="userSpaceOnUse">
      <stop stop-color="#FFD422"/>
      <stop offset="1" stop-color="#FF7D05"/>
    </linearGradient>
    <linearGradient id="paint3_linear" x1="0" y1=".00001" x2="0" y2="140.677" gradientUnits="userSpaceOnUse">
      <stop stop-color="#4DFFDF"/>
      <stop offset="1" stop-color="#4DA1FF"/>
    </linearGradient>
    <linearGradient id="paint4_linear" x1="84.8332" y1="66.5831" x2="63.7066" y2="66.6012" gradientUnits="userSpaceOnUse">
      <stop stop-color="#E323FF"/>
      <stop offset="1" stop-color="#7517F8"/>
    </linearGradient>
  </defs>
</svg>
